<mxfile host="app.diagrams.net" agent="Mozilla/5.0 (Windows NT 10.0; Win64; x64) AppleWebKit/537.36 (KHTML, like Gecko) Chrome/131.0.0.0 Safari/537.36 Edg/131.0.0.0" version="24.7.16">
  <diagram id="C5RBs43oDa-KdzZeNtuy" name="Page-1">
    <mxGraphModel dx="1426" dy="841" grid="1" gridSize="10" guides="1" tooltips="1" connect="1" arrows="1" fold="1" page="1" pageScale="1" pageWidth="827" pageHeight="1169" math="0" shadow="0">
      <root>
        <mxCell id="WIyWlLk6GJQsqaUBKTNV-0" />
        <mxCell id="WIyWlLk6GJQsqaUBKTNV-1" parent="WIyWlLk6GJQsqaUBKTNV-0" />
        <mxCell id="Rk7t1c1oY61u_3t7ce3e-2" style="edgeStyle=none;curved=1;rounded=0;orthogonalLoop=1;jettySize=auto;html=1;fontSize=12;startSize=8;endSize=8;" edge="1" parent="WIyWlLk6GJQsqaUBKTNV-1" source="Rk7t1c1oY61u_3t7ce3e-0" target="Rk7t1c1oY61u_3t7ce3e-3">
          <mxGeometry relative="1" as="geometry">
            <mxPoint x="390" y="200" as="targetPoint" />
          </mxGeometry>
        </mxCell>
        <mxCell id="Rk7t1c1oY61u_3t7ce3e-0" value="Начало" style="ellipse;whiteSpace=wrap;html=1;" vertex="1" parent="WIyWlLk6GJQsqaUBKTNV-1">
          <mxGeometry x="330" y="60" width="120" height="80" as="geometry" />
        </mxCell>
        <mxCell id="Rk7t1c1oY61u_3t7ce3e-4" style="edgeStyle=none;curved=1;rounded=0;orthogonalLoop=1;jettySize=auto;html=1;fontSize=12;startSize=8;endSize=8;" edge="1" parent="WIyWlLk6GJQsqaUBKTNV-1" source="Rk7t1c1oY61u_3t7ce3e-3" target="Rk7t1c1oY61u_3t7ce3e-5">
          <mxGeometry relative="1" as="geometry">
            <mxPoint x="390" y="300" as="targetPoint" />
          </mxGeometry>
        </mxCell>
        <mxCell id="Rk7t1c1oY61u_3t7ce3e-3" value="int rows, cols, k, choice, ** array;" style="shape=parallelogram;perimeter=parallelogramPerimeter;whiteSpace=wrap;html=1;fixedSize=1;" vertex="1" parent="WIyWlLk6GJQsqaUBKTNV-1">
          <mxGeometry x="330" y="170" width="120" height="60" as="geometry" />
        </mxCell>
        <mxCell id="Rk7t1c1oY61u_3t7ce3e-6" style="edgeStyle=none;curved=1;rounded=0;orthogonalLoop=1;jettySize=auto;html=1;fontSize=12;startSize=8;endSize=8;" edge="1" parent="WIyWlLk6GJQsqaUBKTNV-1" source="Rk7t1c1oY61u_3t7ce3e-5" target="Rk7t1c1oY61u_3t7ce3e-7">
          <mxGeometry relative="1" as="geometry">
            <mxPoint x="390" y="390" as="targetPoint" />
          </mxGeometry>
        </mxCell>
        <mxCell id="Rk7t1c1oY61u_3t7ce3e-5" value="array = (int**)malloc(rows * sizeof(int*))" style="rounded=0;whiteSpace=wrap;html=1;" vertex="1" parent="WIyWlLk6GJQsqaUBKTNV-1">
          <mxGeometry x="330" y="270" width="120" height="60" as="geometry" />
        </mxCell>
        <mxCell id="Rk7t1c1oY61u_3t7ce3e-9" style="edgeStyle=none;curved=1;rounded=0;orthogonalLoop=1;jettySize=auto;html=1;fontSize=12;startSize=8;endSize=8;" edge="1" parent="WIyWlLk6GJQsqaUBKTNV-1" source="Rk7t1c1oY61u_3t7ce3e-7" target="Rk7t1c1oY61u_3t7ce3e-10">
          <mxGeometry relative="1" as="geometry">
            <mxPoint x="390" y="470" as="targetPoint" />
          </mxGeometry>
        </mxCell>
        <mxCell id="Rk7t1c1oY61u_3t7ce3e-7" value="array[i] = (int*)malloc(cols * sizeof(int))" style="rounded=0;whiteSpace=wrap;html=1;" vertex="1" parent="WIyWlLk6GJQsqaUBKTNV-1">
          <mxGeometry x="330" y="360" width="120" height="60" as="geometry" />
        </mxCell>
        <mxCell id="Rk7t1c1oY61u_3t7ce3e-11" style="edgeStyle=none;curved=1;rounded=0;orthogonalLoop=1;jettySize=auto;html=1;fontSize=12;startSize=8;endSize=8;" edge="1" parent="WIyWlLk6GJQsqaUBKTNV-1" source="Rk7t1c1oY61u_3t7ce3e-10">
          <mxGeometry relative="1" as="geometry">
            <mxPoint x="80" y="565" as="targetPoint" />
          </mxGeometry>
        </mxCell>
        <mxCell id="Rk7t1c1oY61u_3t7ce3e-28" style="edgeStyle=none;curved=1;rounded=0;orthogonalLoop=1;jettySize=auto;html=1;fontSize=12;startSize=8;endSize=8;" edge="1" parent="WIyWlLk6GJQsqaUBKTNV-1" source="Rk7t1c1oY61u_3t7ce3e-10" target="Rk7t1c1oY61u_3t7ce3e-29">
          <mxGeometry relative="1" as="geometry">
            <mxPoint x="390" y="700" as="targetPoint" />
          </mxGeometry>
        </mxCell>
        <mxCell id="Rk7t1c1oY61u_3t7ce3e-33" style="edgeStyle=none;curved=1;rounded=0;orthogonalLoop=1;jettySize=auto;html=1;fontSize=12;startSize=8;endSize=8;" edge="1" parent="WIyWlLk6GJQsqaUBKTNV-1" source="Rk7t1c1oY61u_3t7ce3e-10">
          <mxGeometry relative="1" as="geometry">
            <mxPoint x="610" y="565" as="targetPoint" />
          </mxGeometry>
        </mxCell>
        <mxCell id="Rk7t1c1oY61u_3t7ce3e-10" value="&lt;div&gt;&amp;nbsp;printf(&quot;\nВыберите способ инициализации массива:\n&quot;);&lt;/div&gt;&lt;div&gt;&amp;nbsp; &amp;nbsp; &amp;nbsp; &amp;nbsp; printf(&quot;1. Ввести вручную\n&quot;);&lt;/div&gt;&lt;div&gt;&amp;nbsp; &amp;nbsp; &amp;nbsp; &amp;nbsp; printf(&quot;2. Сгенерировать случайно\n&quot;);&lt;/div&gt;&lt;div&gt;&amp;nbsp; &amp;nbsp; &amp;nbsp; &amp;nbsp; printf(&quot;0. Выход\n&quot;);&lt;/div&gt;&lt;div&gt;&amp;nbsp; &amp;nbsp; &amp;nbsp; &amp;nbsp; printf(&quot;Ваш выбор: &quot;);&lt;/div&gt;&lt;div&gt;&amp;nbsp; &amp;nbsp; &amp;nbsp; &amp;nbsp; scanf_s(&quot;%d&quot;, &amp;amp;choice);&lt;/div&gt;" style="rhombus;whiteSpace=wrap;html=1;" vertex="1" parent="WIyWlLk6GJQsqaUBKTNV-1">
          <mxGeometry x="280" y="460" width="220" height="210" as="geometry" />
        </mxCell>
        <mxCell id="Rk7t1c1oY61u_3t7ce3e-13" value="" style="endArrow=classic;html=1;rounded=0;fontSize=12;startSize=8;endSize=8;curved=1;" edge="1" parent="WIyWlLk6GJQsqaUBKTNV-1" target="Rk7t1c1oY61u_3t7ce3e-14">
          <mxGeometry width="50" height="50" relative="1" as="geometry">
            <mxPoint x="85" y="570" as="sourcePoint" />
            <mxPoint x="85" y="645" as="targetPoint" />
          </mxGeometry>
        </mxCell>
        <mxCell id="Rk7t1c1oY61u_3t7ce3e-15" style="edgeStyle=none;curved=1;rounded=0;orthogonalLoop=1;jettySize=auto;html=1;fontSize=12;startSize=8;endSize=8;" edge="1" parent="WIyWlLk6GJQsqaUBKTNV-1" source="Rk7t1c1oY61u_3t7ce3e-14">
          <mxGeometry relative="1" as="geometry">
            <mxPoint x="85" y="745" as="targetPoint" />
          </mxGeometry>
        </mxCell>
        <mxCell id="Rk7t1c1oY61u_3t7ce3e-14" value="&lt;code&gt;choice == 0&lt;/code&gt;:" style="rounded=0;whiteSpace=wrap;html=1;" vertex="1" parent="WIyWlLk6GJQsqaUBKTNV-1">
          <mxGeometry x="25" y="645" width="120" height="60" as="geometry" />
        </mxCell>
        <mxCell id="Rk7t1c1oY61u_3t7ce3e-19" style="edgeStyle=none;curved=1;rounded=0;orthogonalLoop=1;jettySize=auto;html=1;fontSize=12;startSize=8;endSize=8;" edge="1" parent="WIyWlLk6GJQsqaUBKTNV-1" source="Rk7t1c1oY61u_3t7ce3e-18" target="Rk7t1c1oY61u_3t7ce3e-20">
          <mxGeometry relative="1" as="geometry">
            <mxPoint x="85" y="870" as="targetPoint" />
          </mxGeometry>
        </mxCell>
        <mxCell id="Rk7t1c1oY61u_3t7ce3e-18" value="free2DArray(array, rows);" style="rounded=0;whiteSpace=wrap;html=1;" vertex="1" parent="WIyWlLk6GJQsqaUBKTNV-1">
          <mxGeometry x="25" y="750" width="120" height="60" as="geometry" />
        </mxCell>
        <mxCell id="Rk7t1c1oY61u_3t7ce3e-20" value="break;" style="rounded=0;whiteSpace=wrap;html=1;" vertex="1" parent="WIyWlLk6GJQsqaUBKTNV-1">
          <mxGeometry x="25" y="860" width="120" height="60" as="geometry" />
        </mxCell>
        <mxCell id="Rk7t1c1oY61u_3t7ce3e-22" value="" style="endArrow=classic;html=1;rounded=0;fontSize=12;startSize=8;endSize=8;curved=1;" edge="1" parent="WIyWlLk6GJQsqaUBKTNV-1" source="Rk7t1c1oY61u_3t7ce3e-10" target="Rk7t1c1oY61u_3t7ce3e-23">
          <mxGeometry width="50" height="50" relative="1" as="geometry">
            <mxPoint x="280" y="660" as="sourcePoint" />
            <mxPoint x="270" y="640" as="targetPoint" />
          </mxGeometry>
        </mxCell>
        <mxCell id="Rk7t1c1oY61u_3t7ce3e-25" style="edgeStyle=none;curved=1;rounded=0;orthogonalLoop=1;jettySize=auto;html=1;fontSize=12;startSize=8;endSize=8;" edge="1" parent="WIyWlLk6GJQsqaUBKTNV-1" source="Rk7t1c1oY61u_3t7ce3e-23" target="Rk7t1c1oY61u_3t7ce3e-26">
          <mxGeometry relative="1" as="geometry">
            <mxPoint x="250" y="750" as="targetPoint" />
          </mxGeometry>
        </mxCell>
        <mxCell id="Rk7t1c1oY61u_3t7ce3e-23" value="&lt;code&gt;choice == 1&lt;/code&gt;:" style="rounded=0;whiteSpace=wrap;html=1;" vertex="1" parent="WIyWlLk6GJQsqaUBKTNV-1">
          <mxGeometry x="190" y="640" width="120" height="60" as="geometry" />
        </mxCell>
        <mxCell id="Rk7t1c1oY61u_3t7ce3e-24" style="edgeStyle=none;curved=1;rounded=0;orthogonalLoop=1;jettySize=auto;html=1;entryX=0.5;entryY=0;entryDx=0;entryDy=0;fontSize=12;startSize=8;endSize=8;" edge="1" parent="WIyWlLk6GJQsqaUBKTNV-1" source="Rk7t1c1oY61u_3t7ce3e-18" target="Rk7t1c1oY61u_3t7ce3e-18">
          <mxGeometry relative="1" as="geometry" />
        </mxCell>
        <mxCell id="Rk7t1c1oY61u_3t7ce3e-48" style="edgeStyle=none;curved=1;rounded=0;orthogonalLoop=1;jettySize=auto;html=1;fontSize=12;startSize=8;endSize=8;" edge="1" parent="WIyWlLk6GJQsqaUBKTNV-1" source="Rk7t1c1oY61u_3t7ce3e-26">
          <mxGeometry relative="1" as="geometry">
            <mxPoint x="250" y="1010" as="targetPoint" />
          </mxGeometry>
        </mxCell>
        <mxCell id="Rk7t1c1oY61u_3t7ce3e-26" value="input2DArray(&amp;amp;array, &amp;amp;rows, &amp;amp;cols);" style="rounded=0;whiteSpace=wrap;html=1;" vertex="1" parent="WIyWlLk6GJQsqaUBKTNV-1">
          <mxGeometry x="190" y="860" width="120" height="60" as="geometry" />
        </mxCell>
        <mxCell id="Rk7t1c1oY61u_3t7ce3e-30" style="edgeStyle=none;curved=1;rounded=0;orthogonalLoop=1;jettySize=auto;html=1;fontSize=12;startSize=8;endSize=8;" edge="1" parent="WIyWlLk6GJQsqaUBKTNV-1" source="Rk7t1c1oY61u_3t7ce3e-29" target="Rk7t1c1oY61u_3t7ce3e-31">
          <mxGeometry relative="1" as="geometry">
            <mxPoint x="390" y="860" as="targetPoint" />
          </mxGeometry>
        </mxCell>
        <mxCell id="Rk7t1c1oY61u_3t7ce3e-29" value="choice == 2" style="rounded=0;whiteSpace=wrap;html=1;" vertex="1" parent="WIyWlLk6GJQsqaUBKTNV-1">
          <mxGeometry x="330" y="750" width="120" height="60" as="geometry" />
        </mxCell>
        <mxCell id="Rk7t1c1oY61u_3t7ce3e-50" style="edgeStyle=none;curved=1;rounded=0;orthogonalLoop=1;jettySize=auto;html=1;fontSize=12;startSize=8;endSize=8;" edge="1" parent="WIyWlLk6GJQsqaUBKTNV-1" source="Rk7t1c1oY61u_3t7ce3e-31">
          <mxGeometry relative="1" as="geometry">
            <mxPoint x="390" y="1010" as="targetPoint" />
          </mxGeometry>
        </mxCell>
        <mxCell id="Rk7t1c1oY61u_3t7ce3e-31" value="initialize_random(array, rows, cols);" style="rounded=0;whiteSpace=wrap;html=1;" vertex="1" parent="WIyWlLk6GJQsqaUBKTNV-1">
          <mxGeometry x="330" y="860" width="120" height="60" as="geometry" />
        </mxCell>
        <mxCell id="Rk7t1c1oY61u_3t7ce3e-34" value="" style="endArrow=classic;html=1;rounded=0;fontSize=12;startSize=8;endSize=8;curved=1;" edge="1" parent="WIyWlLk6GJQsqaUBKTNV-1" target="Rk7t1c1oY61u_3t7ce3e-35">
          <mxGeometry width="50" height="50" relative="1" as="geometry">
            <mxPoint x="610" y="560" as="sourcePoint" />
            <mxPoint x="610" y="650" as="targetPoint" />
          </mxGeometry>
        </mxCell>
        <mxCell id="Rk7t1c1oY61u_3t7ce3e-36" style="edgeStyle=none;curved=1;rounded=0;orthogonalLoop=1;jettySize=auto;html=1;fontSize=12;startSize=8;endSize=8;" edge="1" parent="WIyWlLk6GJQsqaUBKTNV-1" source="Rk7t1c1oY61u_3t7ce3e-35" target="Rk7t1c1oY61u_3t7ce3e-37">
          <mxGeometry relative="1" as="geometry">
            <mxPoint x="610" y="760" as="targetPoint" />
          </mxGeometry>
        </mxCell>
        <mxCell id="Rk7t1c1oY61u_3t7ce3e-35" value="printf(&quot;Неверный выбор! Попробуйте снова.\n&quot;);" style="rounded=0;whiteSpace=wrap;html=1;" vertex="1" parent="WIyWlLk6GJQsqaUBKTNV-1">
          <mxGeometry x="550" y="640" width="120" height="60" as="geometry" />
        </mxCell>
        <mxCell id="Rk7t1c1oY61u_3t7ce3e-38" style="edgeStyle=none;curved=1;rounded=0;orthogonalLoop=1;jettySize=auto;html=1;fontSize=12;startSize=8;endSize=8;" edge="1" parent="WIyWlLk6GJQsqaUBKTNV-1" source="Rk7t1c1oY61u_3t7ce3e-37">
          <mxGeometry relative="1" as="geometry">
            <mxPoint x="760" y="800" as="targetPoint" />
          </mxGeometry>
        </mxCell>
        <mxCell id="Rk7t1c1oY61u_3t7ce3e-37" value="free2DArray(array, rows);" style="rounded=0;whiteSpace=wrap;html=1;" vertex="1" parent="WIyWlLk6GJQsqaUBKTNV-1">
          <mxGeometry x="550" y="770" width="120" height="60" as="geometry" />
        </mxCell>
        <mxCell id="Rk7t1c1oY61u_3t7ce3e-39" style="edgeStyle=none;curved=1;rounded=0;orthogonalLoop=1;jettySize=auto;html=1;fontSize=12;startSize=8;endSize=8;" edge="1" parent="WIyWlLk6GJQsqaUBKTNV-1" source="Rk7t1c1oY61u_3t7ce3e-37">
          <mxGeometry relative="1" as="geometry">
            <mxPoint x="760" y="800" as="targetPoint" />
            <mxPoint x="670" y="800" as="sourcePoint" />
          </mxGeometry>
        </mxCell>
        <mxCell id="Rk7t1c1oY61u_3t7ce3e-40" value="" style="endArrow=classic;html=1;rounded=0;fontSize=12;startSize=8;endSize=8;curved=1;" edge="1" parent="WIyWlLk6GJQsqaUBKTNV-1" target="Rk7t1c1oY61u_3t7ce3e-43">
          <mxGeometry width="50" height="50" relative="1" as="geometry">
            <mxPoint x="760" y="800" as="sourcePoint" />
            <mxPoint x="760" y="520" as="targetPoint" />
          </mxGeometry>
        </mxCell>
        <mxCell id="Rk7t1c1oY61u_3t7ce3e-41" value="" style="endArrow=classic;html=1;rounded=0;fontSize=12;startSize=8;endSize=8;curved=1;entryX=0.791;entryY=0.29;entryDx=0;entryDy=0;entryPerimeter=0;" edge="1" parent="WIyWlLk6GJQsqaUBKTNV-1" target="Rk7t1c1oY61u_3t7ce3e-10">
          <mxGeometry width="50" height="50" relative="1" as="geometry">
            <mxPoint x="760" y="520" as="sourcePoint" />
            <mxPoint x="660" y="520" as="targetPoint" />
          </mxGeometry>
        </mxCell>
        <mxCell id="Rk7t1c1oY61u_3t7ce3e-44" style="edgeStyle=none;curved=1;rounded=0;orthogonalLoop=1;jettySize=auto;html=1;fontSize=12;startSize=8;endSize=8;" edge="1" parent="WIyWlLk6GJQsqaUBKTNV-1" source="Rk7t1c1oY61u_3t7ce3e-43">
          <mxGeometry relative="1" as="geometry">
            <mxPoint x="760" y="520" as="targetPoint" />
          </mxGeometry>
        </mxCell>
        <mxCell id="Rk7t1c1oY61u_3t7ce3e-43" value="continue;" style="rounded=0;whiteSpace=wrap;html=1;" vertex="1" parent="WIyWlLk6GJQsqaUBKTNV-1">
          <mxGeometry x="700" y="620" width="120" height="60" as="geometry" />
        </mxCell>
        <mxCell id="Rk7t1c1oY61u_3t7ce3e-45" value="print2DArray(array, rows, cols)" style="rounded=0;whiteSpace=wrap;html=1;" vertex="1" parent="WIyWlLk6GJQsqaUBKTNV-1">
          <mxGeometry x="25" y="980" width="120" height="60" as="geometry" />
        </mxCell>
        <mxCell id="Rk7t1c1oY61u_3t7ce3e-46" value="" style="endArrow=classic;html=1;rounded=0;fontSize=12;startSize=8;endSize=8;curved=1;" edge="1" parent="WIyWlLk6GJQsqaUBKTNV-1">
          <mxGeometry width="50" height="50" relative="1" as="geometry">
            <mxPoint x="80" y="920" as="sourcePoint" />
            <mxPoint x="80" y="980" as="targetPoint" />
          </mxGeometry>
        </mxCell>
        <mxCell id="Rk7t1c1oY61u_3t7ce3e-47" value="" style="endArrow=classic;html=1;rounded=0;fontSize=12;startSize=8;endSize=8;curved=1;entryX=0.992;entryY=0.383;entryDx=0;entryDy=0;entryPerimeter=0;" edge="1" parent="WIyWlLk6GJQsqaUBKTNV-1" target="Rk7t1c1oY61u_3t7ce3e-45">
          <mxGeometry width="50" height="50" relative="1" as="geometry">
            <mxPoint x="250" y="1003" as="sourcePoint" />
            <mxPoint x="230" y="960" as="targetPoint" />
          </mxGeometry>
        </mxCell>
        <mxCell id="Rk7t1c1oY61u_3t7ce3e-51" value="" style="endArrow=classic;html=1;rounded=0;fontSize=12;startSize=8;endSize=8;curved=1;" edge="1" parent="WIyWlLk6GJQsqaUBKTNV-1">
          <mxGeometry width="50" height="50" relative="1" as="geometry">
            <mxPoint x="386" y="1000" as="sourcePoint" />
            <mxPoint x="250" y="1000" as="targetPoint" />
          </mxGeometry>
        </mxCell>
      </root>
    </mxGraphModel>
  </diagram>
</mxfile>
